<?xml version="1.0" standalone="no"?>
<!DOCTYPE svg PUBLIC "-//W3C//DTD SVG 1.1//EN" "http://www.w3.org/Graphics/SVG/1.1/DTD/svg11.dtd" >
<!--
2013-9-30: Created.
-->
<svg>
<metadata>
Created by iconfont
</metadata>
<defs>

<font id="iconfont" horiz-adv-x="1024" >
  <font-face
    font-family="iconfont"
    font-weight="500"
    font-stretch="normal"
    units-per-em="1024"
    ascent="896"
    descent="-128"
  />
    <missing-glyph />
    
    <glyph glyph-name="ditu" unicode="&#58932;" d="M511.662821 422.902008c61.621453 0 111.799272 47.734164 111.799272 106.47194 0 58.737776-50.177819 106.469893-111.799272 106.469893-61.620429 0-111.798249-47.732118-111.798249-106.469893C399.863549 470.636173 450.041368 422.902008 511.662821 422.902008zM511.662821 593.265094c37.07643 0 67.080791-28.605501 67.080791-63.891146 0-35.243689-30.003338-63.893192-67.080791-63.893192-37.011962 0-67.079768 28.649504-67.079768 63.893192C444.583053 564.659593 474.649835 593.265094 511.662821 593.265094zM824.065923 558.98229c-0.873903-14.937201-1.24434-26.683732-4.234441-49.436946l94.307899 29.740348 0-466.629673-268.320095-74.633814-312.577065 86.776366 0 0.12996-0.217964-0.089028-0.240477 0.089028 0-0.174985-223.597521-71.795163L109.18626 477.754291l92.561116 22.402219c-2.227738 12.797467-3.123131 26.420743-3.123131 40.048111l0 1.702782L64.467779 509.545344l0-553.665958 44.719504 14.456247 223.837998 71.925123 312.795029-86.656639 313.038576 86.700641L958.858886 596.014718 824.065923 558.98229zM394.186246 227.035062c1.746784-2.487657 3.472078-4.497431 4.869914-5.940292 40.962947-49.434899 82.231863-82.319867 84.022649-83.71668l28.757974-22.797215 28.626991 22.971178c1.790786 1.39886 42.927695 34.674731 83.804684 83.937714 1.397836 1.483794 3.188622 3.5345 4.913916 6.070252 58.453297 75.899644 131.122363 185.866175 147.544381 281.069467 3.164063 21.703301 3.25309 34.848693 3.25309 36.288484 0.547469 71.143317-27.90556 138.002051-80.093153 188.04991-50.528813 48.475038-117.390617 75.15877-188.224896 75.15877-70.550823 0-137.235594-26.683732-187.764408-75.15877-52.472072-50.307779-81.099063-117.520577-80.551594-189.183733 0-1.13587 0.085958-14.326287 3.123131-34.981722C264.112772 406.917966 346.125647 289.137469 394.186246 227.035062zM511.662821 765.548926c123.438357 0 224.493937-98.390891 223.598544-220.62891 0 0 0-11.047614-2.687202-29.389354-14.760169-85.59547-84.503603-191.629435-140.40375-264.037559-0.458441-0.873903-1.353834-1.702782-1.790786-2.139733-38.908148-47.254234-78.716806-79.219249-78.716806-79.219249s-39.806611 31.529087-78.715783 78.782298c-0.436952 0.436952-1.332345 1.309832-1.790786 2.139733C375.256104 323.027323 305.511647 429.497217 290.751478 514.700761c-2.686179 18.297738-2.686179 29.390377-2.686179 29.390377C287.169907 666.326087 388.224464 765.548926 511.662821 765.548926z"  horiz-adv-x="1024" />

    
    <glyph glyph-name="tishi" unicode="&#58938;" d="M878.144 90.88c-123.2 66.944-89.728 234.112-109.12 417.216C749.632 691.2 556.032 726.4 556.032 726.4s0 0-1.728 47.488C552.512 821.44 512 832 512 832S471.552 821.44 469.76 773.888C468.032 726.4 468.032 726.4 468.032 726.4S274.368 691.2 255.04 508.032c-19.392-183.04 14.08-350.272-109.184-417.216 0 0-49.28-42.176 38.72-42.176 88 0 327.424 0 327.424 0s239.424 0 327.424 0S878.144 90.88 878.144 90.88zM453.056-12.928l117.888 0 0-51.072-117.888 0 0 51.072Z"  horiz-adv-x="1024" />

    
    <glyph glyph-name="shanchuguanbicha2" unicode="&#59403;" d="M520.7890625 770.71875C302.46875 770.71875 125.28125 593.53125 125.28125 375.2109375S302.46875-20.296875 520.7890625-20.296875c218.3203125 0 395.5078125 177.1875 395.5078125 395.5078125S739.109375 770.71875 520.7890625 770.71875zM697.9765625 198.55078125c-10.546875-10.546875-27.421875-10.546875-37.44140625 0L519.20703125 340.93359375l-143.4375-141.85546875c-10.546875-10.546875-27.421875-10.546875-37.96875 0-10.546875 10.546875-10.546875 27.421875 0 37.44140625l143.96484375 142.3828125L345.7109375 514.95703125c-10.546875 10.546875-10.546875 27.421875 0 37.44140625 10.546875 10.546875 27.421875 10.546875 37.44140625 0l136.0546875-136.58203125 138.1640625 136.58203125c10.546875 10.546875 27.421875 10.546875 37.96875 0 10.546875-10.546875 10.546875-27.421875 0-37.44140625l-138.69140625-137.109375 140.80078125-141.85546875C707.99609375 225.97265625 707.99609375 209.09765625 697.9765625 198.55078125z"  horiz-adv-x="1024" />

    
    <glyph glyph-name="wanggeshitu" unicode="&#58945;" d="M722.9375 173.0625L933.875 173.0625 933.875-37.875 722.9375-37.875 722.9375 173.0625ZM406.53125 173.0625L617.46875 173.0625 617.46875-37.875 406.53125-37.875 406.53125 173.0625ZM90.125 173.0625L301.0625 173.0625 301.0625-37.875 90.125-37.875 90.125 173.0625ZM722.9375 489.46875L933.875 489.46875 933.875 278.53125 722.9375 278.53125 722.9375 489.46875ZM406.53125 489.46875L617.46875 489.46875 617.46875 278.53125 406.53125 278.53125 406.53125 489.46875ZM90.125 489.46875L301.0625 489.46875 301.0625 278.53125 90.125 278.53125 90.125 489.46875ZM722.9375 805.875L933.875 805.875 933.875 594.9375 722.9375 594.9375 722.9375 805.875ZM406.53125 805.875L617.46875 805.875 617.46875 594.9375 406.53125 594.9375 406.53125 805.875ZM90.125 805.875L301.0625 805.875 301.0625 594.9375 90.125 594.9375 90.125 805.875Z"  horiz-adv-x="1024" />

    
    <glyph glyph-name="zhuanjiarenzheng" unicode="&#58910;" d="M933.514149 161.460578 804.15699 29.586085c-3.702322-3.800559-8.686846-5.922896-13.96813-5.922896l-0.148379 0c-5.281283 0-10.265808 2.122337-14.016225 5.922896l-74.18049 76.400041c-5.428639 5.577019-8.192589 12.338003-7.748475 18.903535 0.493234 6.861268 4.243651 13.029758 11.203156 18.311041 5.676279 4.39203 11.549034 6.613628 17.470907 6.613628 10.907421 0 18.163685-7.501858 20.531616-9.970072l46.788629-48.119951 99.499132 103.595426c4.737908 4.836145 11.597129 7.699356 18.508539 7.699356 6.415107 0 12.782118-2.368954 18.457374-6.861268 7.058766-5.577019 11.400654-13.029758 11.894911-20.482497C938.794409 170.147424 937.068092 165.113781 933.514149 161.460578L933.514149 161.460578zM416.624792 62.059684l-41.260729 46.295396 41.260729 206.992331 41.309848-206.992331L416.624792 62.059684 416.624792 62.059684zM822.268486-80.425472c-60.85295 0-117.512391 27.687596-156.156526 76.104305L-0.518816-3.92617l0 66.381873c0 41.605583 19.642362 74.821079 60.013839 101.522208 30.945803 20.481474 70.527286 34.548864 108.777449 48.170093 76.845179 27.341718 127.234823 48.416709 127.234823 90.170672 0 4.787026 0.050142 9.376555 0.099261 14.213723l0 0.73985c0.049119 3.702322 0.098237 7.749498 0.146333 11.993149-15.791661 19.396769-41.704844 56.561204-55.375192 104.829534-14.114462 10.610662-25.467021 26.799366-32.918737 47.034223-10.463306 28.575826-14.263865 70.724785 5.575995 104.680131-3.40454 34.548864-10.759041 127.433344 47.034223 192.087876 39.188534 43.8763 93.2805 68.899206 152.308895 70.527286l0.73985 0 0.740874 0c59.07649-1.62808 113.169479-26.650987 152.306848-70.527286 24.727171-27.638477 40.323381-63.617923 46.344514-106.900705 4.638647-33.067116 2.714831-63.962777 0.689708-85.284385 19.742646-33.95637 15.942087-75.957972 5.528923-104.484679-7.40362-20.085454-18.755156-36.274158-33.06814-47.083341-13.078877-46.294372-36.965913-82.223676-55.670927-105.075127-0.147356-9.031701-0.197498-19.050891-0.197498-28.181853 0-0.147356 0.394996-14.855336 37.165458-45.455261 19.790742-16.48444 39.97648-28.971845 44.221154-31.587416l26.996864-10.265808c15.250332 34.498722 39.23663 64.012919 69.836555 85.629239 33.708729 23.937179 73.242118 36.522822 114.254184 36.522822 111.493304 0 202.206328-93.328595 202.206328-208.079082C1024.474814 12.904147 933.76179-80.425472 822.268486-80.425472L822.268486-80.425472zM622.433158 159.289122l-35.782971 13.868869-0.591471 0.344854c-1.62808 0.98749-40.519856 23.88806-54.733579 35.682687-39.631626 32.91976-58.880015 62.878073-58.880015 91.700515 0 10.809183 0.147356 22.457478 0.246617 34.795481l0.198521 16.285918 7.402597 8.292873c12.092409 13.621229 41.409109 50.539047 52.710502 99.695606l3.208065 13.96813 12.635785 6.021134c6.26775 2.961448 12.189623 11.006681 16.237823 22.062482 6.514367 17.915022 7.303336 43.382043-3.800559 57.398268l-9.130961 11.499915 3.207042 13.078877c3.157923 29.711695 11.006681 106.556874-31.339776 153.986093-20.137643 22.505573-55.67195 49.650817-110.899786 51.427276-55.178717-1.77646-90.763167-28.92068-110.898763-51.427276-42.445718-47.529503-34.400484-125.459387-31.29168-155.071821 0.049119-0.344854 0.098237-0.689708 0.147356-1.084705l1.579985-12.635785-7.798617-9.771551c-11.154038-14.017248-10.314926-39.483246-3.800559-57.44841 4.097318-11.0558 9.970072-19.101033 16.090467-22.01234l12.684904-6.021134 3.208065-13.96813c11.301394-49.4042 40.470737-86.171592 52.463885-99.695606l7.402597-8.292873 0.148379-11.251252c0.098237-8.637728 0-16.286941-0.098237-23.690562l-0.050142-1.62808c-0.050142-4.54041-0.098237-8.78406-0.098237-13.078877 0-40.470737-19.297508-72.798003-58.929134-98.807377-30.254048-19.840884-69.194942-33.709753-106.803491-47.084365-78.719876-28.033473-130.246413-49.700959-130.246413-93.971232l0-7.40362 575.917752 0.148379c-8.389064 23.146163-12.633738 47.429219-12.633738 72.451102C620.114346 138.215154 620.902292 148.826839 622.433158 159.289122L622.433158 159.289122zM822.268486 276.753417c-79.854722 0-144.855132-66.87613-144.855132-149.10083 0-82.223676 65.00041-149.098783 144.855132-149.098783 79.905888 0 144.857179 66.875107 144.857179 149.098783C967.125665 209.877287 902.174374 276.753417 822.268486 276.753417L822.268486 276.753417z"  horiz-adv-x="1041" />

    
    <glyph glyph-name="webicon01" unicode="&#58987;" d="M896 96l-315.136 0-29.632 96L832 192c16.384 0 32.768 6.24 45.248 18.752C889.76 223.232 896 239.616 896 256L896 640c0 16.384-6.24 32.768-18.752 45.248C864.768 697.76 848.384 704 832 704L192 704C175.616 704 159.232 697.76 146.752 685.248 134.24 672.768 128 656.384 128 640l0-384c0-16.384 6.24-32.768 18.752-45.248C159.232 198.24 175.616 192 192 192l260.416 0-29.632-96L128 96c-8.832 0-16-7.168-16-16C112 71.168 119.168 64 128 64l768 0c8.832 0 16 7.168 16 16C912 88.832 904.832 96 896 96zM462.304 224 192 224c-8.192 0-16.384 3.136-22.624 9.376S160 247.808 160 256L160 640c0 8.192 3.136 16.384 9.376 22.624C175.616 668.864 183.808 672 192 672l640 0c8.192 0 16.384-3.136 22.624-9.376C860.864 656.384 864 648.192 864 640l0-384c0-8.192-3.136-16.384-9.376-22.624S840.192 224 832 224l-290.656 0L462.304 224z"  horiz-adv-x="1024" />

    
    <glyph glyph-name="webicon06" unicode="&#58992;" d="M998.05596972 560.74762534L512 847.96251653 25.94403028 560.74762534l486.05596972-287.21489119L998.05596972 560.74762534zM512 790.51953831l388.84477577-229.77191297L512 330.97571239 123.15522423 560.74762534 512 790.51953831zM509.26041181 132.13463387000002L127.48554106 339.81309366000005 21.92302181 339.81309366000005 509.26041181 74.69165565000003 996.55361489 339.81309366000005 890.99109566 339.81309366000005ZM509.26041181-44.61299147L127.48554106 163.06546830000002 21.92302181 163.06546830000002 509.26041181-102.05596972000001 996.55361489 163.06546830000002 890.99109566 163.06546830000002Z"  horiz-adv-x="1024" />

    
    <glyph glyph-name="jiantousanjiaoxia" unicode="&#58937;" d="M512 154.8288 204.8 462.0288 819.2 462.0288 512 154.8288Z"  horiz-adv-x="1024" />

    
    <glyph glyph-name="jichushujuguanli" unicode="&#58891;" d="M512 883.2L76.8 633.6v-499.2L512-115.2l435.2 249.6V633.6L512 883.2zM627.2 320c-25.6-38.4-70.4-64-115.2-64-25.6 0-44.8 6.4-64 19.2C384 307.2 358.4 384 396.8 448c25.6 38.4 70.4 64 115.2 64 25.6 0 44.8-6.4 64-19.2 32-19.2 51.2-44.8 64-76.8 6.4-32 6.4-64-12.8-96z m-32 204.8c-19.2 12.8-44.8 19.2-64 25.6V832L896 627.2l-249.6-140.8c-12.8 12.8-32 25.6-51.2 38.4z m-102.4 25.6c-44.8-6.4-89.6-32-115.2-70.4L128 627.2 492.8 832v-281.6zM358.4 448c-12.8-32-19.2-70.4-6.4-108.8 0-6.4 6.4-19.2 6.4-25.6l-249.6-140.8V595.2L358.4 448z m19.2-160c12.8-19.2 32-32 51.2-44.8 19.2-12.8 44.8-19.2 64-19.2V-64L128 140.8l249.6 147.2z m153.6-70.4c44.8 6.4 89.6 32 115.2 64l249.6-140.8L531.2-64v281.6zM665.6 320c12.8 32 19.2 70.4 6.4 108.8 0 6.4-6.4 19.2-6.4 25.6l249.6 140.8v-422.4L665.6 320zM512 448c-25.6 0-44.8-12.8-44.8-38.4 0-12.8 6.4-25.6 19.2-32v-38.4c6.4-12.8 12.8-19.2 25.6-19.2s19.2 6.4 19.2 19.2v38.4c12.8 6.4 25.6 19.2 25.6 32 0 25.6-19.2 38.4-44.8 38.4z"  horiz-adv-x="1024" />

    
    <glyph glyph-name="tuichu" unicode="&#59032;" d="M902.91 404.389l-178.525 178.525c-11.286 11.286-29.855 11.286-41.142 0s-11.286-29.855 0-41.142l128.159-128.159h-401.59c-16.020 0-29.127-13.107-29.127-29.127s13.107-29.127 29.127-29.127h402.925l-129.494-129.494c-11.286-11.286-11.286-29.855 0-41.142s29.855-11.286 41.142 0l178.525 178.525c11.408 11.286 11.408 29.855 0 41.142zM641.858 130.594c-16.142 0-29.127-12.986-29.127-29.127v-32.039c0-21.36-17.476-38.836-38.836-38.836h-364.939c-21.36 0-38.836 17.476-38.836 38.836v628.295c0 21.36 17.476 38.836 38.836 38.836h364.939c21.36 0 38.836-17.476 38.836-38.836v-32.039c0-16.142 12.986-29.127 29.127-29.127s29.127 12.986 29.127 29.127v32.039c0 53.521-43.569 97.090-97.090 97.090h-364.939c-53.521 0-97.090-43.569-97.090-97.090v-628.295c0-53.521 43.569-97.090 97.090-97.090h364.939c53.521 0 97.090 43.569 97.090 97.090v32.039c0 16.020-13.107 29.127-29.127 29.127z"  horiz-adv-x="1024" />

    
    <glyph glyph-name="chacha" unicode="&#58921;" d="M916.336-21.44a15.952 15.952 0 0 0-11.312 4.688L96.368 791.92a15.984 15.984 0 1 0 22.624 22.624l808.656-808.672a15.984 15.984 0 0 0-11.312-27.312zM107.68-21.44a15.984 15.984 0 0 0-11.312 27.312L905.024 814.544a15.984 15.984 0 1 0 22.624-22.624L118.992-16.752a15.92 15.92 0 0 0-11.312-4.688z"  horiz-adv-x="1024" />

    
    <glyph glyph-name="riqi1" unicode="&#58948;" d="M866.98666667 493.22666667h-709.97333334v-107.47904a27.30666667 27.30666667 0 0 0-54.61333333 0V657.06666667A81.92 81.92 0 0 0 184.32 738.98666667h54.61333333v-54.61333334H184.32a27.30666667 27.30666667 0 0 1-27.30666667-27.30666666v-109.22666667h709.97333334V657.06666667a27.30666667 27.30666667 0 0 1-27.30666667 27.30666666h-54.61333333v54.61333334h54.61333333A81.92 81.92 0 0 0 921.6 657.06666667v-600.74666667a81.92 81.92 0 0 0-81.92-81.92H184.32A81.92 81.92 0 0 0 102.4 56.32000000000005v193.76810667a27.30666667 27.30666667 0 0 0 54.61333333 0V56.32000000000005a27.30666667 27.30666667 0 0 1 27.30666667-27.30666667h655.36a27.30666667 27.30666667 0 0 1 27.30666667 27.30666667V493.22666667zM621.22666667 738.98666667v-54.61333334H402.77333333v54.61333334h218.45333334zM320.85333333 384h54.61333334a27.30666667 27.30666667 0 0 0 0-54.61333333h-54.61333334a27.30666667 27.30666667 0 0 0 0 54.61333333z m327.68 0h54.61333334a27.30666667 27.30666667 0 0 0 0-54.61333333h-54.61333334a27.30666667 27.30666667 0 0 0 0 54.61333333z m-163.84 0h54.61333334a27.30666667 27.30666667 0 0 0 0-54.61333333h-54.61333334a27.30666667 27.30666667 0 0 0 0 54.61333333z m-163.84-163.84h54.61333334a27.30666667 27.30666667 0 0 0 0-54.61333333h-54.61333334a27.30666667 27.30666667 0 0 0 0 54.61333333z m327.68 0h54.61333334a27.30666667 27.30666667 0 0 0 0-54.61333333h-54.61333334a27.30666667 27.30666667 0 0 0 0 54.61333333z m-163.84 0h54.61333334a27.30666667 27.30666667 0 0 0 0-54.61333333h-54.61333334a27.30666667 27.30666667 0 0 0 0 54.61333333z m-163.84 600.74666667a27.30666667 27.30666667 0 0 0 27.30666667-27.30666667v-163.84a27.30666667 27.30666667 0 0 0-54.61333333 0v163.84a27.30666667 27.30666667 0 0 0 27.30666666 27.30666667z m382.29333334 0a27.30666667 27.30666667 0 0 0 27.30666666-27.30666667v-163.84a27.30666667 27.30666667 0 0 0-54.61333333 0v163.84a27.30666667 27.30666667 0 0 0 27.30666667 27.30666667z"  horiz-adv-x="1024" />

    
    <glyph glyph-name="huanjingjiance" unicode="&#58915;" d="M512 831c246.871 0 447-200.129 447-447a445.017 445.017 0 0 0-88.8-267.446C788.512 7.616 658.35-63 512-63h-0.13c-145.693 0.041-275.319 70.073-357.041 178.213A445 445 0 0 0 65 384C65 630.871 265.129 831 512 831z m0-826.9c209.711 0 380.326 170.578 380.326 380.245S721.711 764.591 512 764.591 131.674 594.014 131.674 384.347 302.287 4.1 512 4.1zM261.392 540.926a33.567 33.567 0 0 0 30.085-48.367 243.066 243.066 0 0 1-25.086-108.212c0-135.4 110.178-245.555 245.607-245.555S757.6 248.949 757.6 384.347a243.019 243.019 0 0 1-25.085 108.212 33.558 33.558 0 0 0 60.226 29.619 309.581 309.581 0 0 0 31.977-137.831c0-172.4-140.287-312.657-312.722-312.657S199.277 211.946 199.277 384.347a309.6 309.6 0 0 0 31.977 137.831 33.562 33.562 0 0 0 30.138 18.748zM512 283.694a100.654 100.654 0 0 0-33.558 195.557V663.938a33.558 33.558 0 0 0 67.116 0v-184.687A100.654 100.654 0 0 0 512 283.694z m0 134.2a33.551 33.551 0 1 1 33.558-33.551A33.593 33.593 0 0 1 512 417.9z"  horiz-adv-x="1024" />

    
    <glyph glyph-name="huaxuehecheng" unicode="&#59170;" d="M789.76-115.20000000000005H208.64c-26.88 0-51.2 13.44-65.28 36.48-14.08 23.04-15.36 51.2-3.2 74.88l227.2 484.48V728.3199999999999h-10.88c-14.72 0-26.24 11.52-26.24 26.24s11.52 26.24 26.24 26.24h287.36c14.72 0 26.24-11.52 26.24-26.24s-11.52-26.24-26.24-26.24h-10.88v-247.04l227.2-485.12c12.16-24.32 10.88-51.84-3.2-74.88-16-22.4-40.32-36.48-67.2-36.48zM355.2 765.44c-5.76 0-10.88-5.12-10.88-10.88 0-5.76 5.12-10.88 10.88-10.88h18.56c4.48 0 7.68-3.2 7.68-7.68v-256c0-1.28 0-1.92-0.64-3.2l-227.84-486.4c-9.6-19.84-8.96-42.24 2.56-60.16 11.52-18.56 31.36-29.44 52.48-29.44h581.12c21.76 0 41.6 10.88 52.48 29.44 11.52 18.56 12.16 40.96 2.56 60.16l-227.84 486.4c-0.64 1.28-0.64 1.92-0.64 3.2V736c0 4.48 3.2 7.68 7.68 7.68h18.56c5.76 0 10.88 5.12 10.88 10.88 0 5.76-5.12 10.88-10.88 10.88H355.2zM568.96 209.27999999999997H503.04c-4.48 0-7.68 3.2-7.68 7.68s3.2 7.68 7.68 7.68h65.92c4.48 0 7.68-3.2 7.68-7.68 0-3.84-3.84-7.68-7.68-7.68zM568.96 21.75999999999999H503.04c-4.48 0-7.68 3.2-7.68 7.68s3.2 7.68 7.68 7.68h65.92c4.48 0 7.68-3.2 7.68-7.68s-3.84-7.68-7.68-7.68zM568.96 172.15999999999997H503.04c-4.48 0-7.68 3.2-7.68 7.68s3.2 7.68 7.68 7.68h65.92c4.48 0 7.68-3.2 7.68-7.68s-3.84-7.68-7.68-7.68zM568.96 96.63999999999999H503.04c-4.48 0-7.68 3.2-7.68 7.68s3.2 7.68 7.68 7.68h65.92c4.48 0 7.68-3.2 7.68-7.68 0-3.84-3.84-7.68-7.68-7.68zM568.96 134.39999999999998H503.04c-4.48 0-7.68 3.2-7.68 7.68s3.2 7.68 7.68 7.68h65.92c4.48 0 7.68-3.2 7.68-7.68s-3.84-7.68-7.68-7.68zM568.96 58.879999999999995H503.04c-4.48 0-7.68 3.2-7.68 7.68s3.2 7.68 7.68 7.68h65.92c4.48 0 7.68-3.2 7.68-7.68 0-3.84-3.84-7.68-7.68-7.68zM476.8 21.75999999999999c-4.48 0-7.68 3.2-7.68 7.68V217.60000000000002c0 4.48 3.2 7.68 7.68 7.68s7.68-3.2 7.68-7.68v-188.16c0-4.48-3.2-7.68-7.68-7.68zM280.32 5.759999999999991c-3.2 0-6.4 0.64-9.6 1.92l-2.56 1.28c-12.8 5.12-18.56 19.84-13.44 32.64l332.8 817.28c2.56 6.4 7.04 10.88 13.44 13.44 6.4 2.56 12.8 2.56 19.2 0l2.56-1.28c12.8-5.12 18.56-19.84 13.44-32.64l-332.8-817.28c-3.84-9.6-12.8-15.36-23.04-15.36zM611.2 858.88c-1.28 0-2.56 0-3.84-0.64-2.56-1.28-4.48-2.56-5.12-5.12l-332.8-817.28c-1.92-5.12 0-10.88 5.12-12.8l2.56-1.28c5.12-1.92 10.88 0 12.8 5.12l332.8 817.28c1.28 2.56 1.28 5.12 0 7.68-1.28 2.56-2.56 4.48-5.12 5.12L614.4 857.6c-1.28 0.64-2.56 1.28-3.2 1.28zM769.28-20.480000000000018H229.12c-19.2 0-28.8 12.8-32.64 17.92-3.2 5.12-10.24 19.84-1.92 37.12 0.64 1.28 53.76 114.56 106.88 228.48 1.28 2.56 3.84 4.48 7.04 4.48h380.16c3.2 0 5.76-1.92 7.04-4.48l65.92-140.16c24.32-51.2 40.96-87.68 41.6-88.32 8.32-17.28 1.92-31.36-1.92-37.12-3.2-5.76-12.8-17.92-32-17.92zM313.6 252.15999999999997c-26.88-58.24-104.96-224-104.96-224.64-5.12-10.24-1.28-19.2 1.28-22.4 2.56-3.84 8.32-10.88 19.2-10.88h540.16c11.52 0 17.28 7.68 19.2 10.88 1.92 3.2 6.4 12.16 1.28 22.4l-41.6 88.32-64 136.32H313.6z"  horiz-adv-x="1024" />

    
    <glyph glyph-name="fangda" unicode="&#58922;" d="M806-15H218c-57.9 0-105 47.1-105 105V678c0 57.9 47.1 105 105 105h588c57.9 0 105-47.1 105-105v-588c0-57.9-47.1-105-105-105zM218 741c-34.7 0-63-28.3-63-63v-588c0-34.7 28.3-63 63-63h588c34.7 0 63 28.3 63 63V678c0 34.7-28.3 63-63 63H218zM593.3 444.4c-5.4 0-10.7 2.1-14.8 6.1-8.2 8.2-8.3 21.5-0.1 29.7l155 155.8c8.2 8.2 21.5 8.2 29.7 0.1 8.2-8.2 8.3-21.5 0.1-29.7l-155-155.8c-4.1-4.1-9.5-6.2-14.9-6.2zM281 132.1c-5.4 0-10.7 2-14.8 6.1-8.2 8.2-8.3 21.5-0.1 29.7l155 155.8c8.2 8.2 21.5 8.3 29.7 0.1 8.2-8.2 8.3-21.5 0.1-29.7l-155-155.8c-4.1-4.2-9.5-6.2-14.9-6.2zM773.6 624.2h-126c-11.6 0-21 9.4-21 21s9.4 21 21 21h126c11.6 0 21-9.4 21-21s-9.4-21-21-21zM773.6 498.2c-11.6 0-21 9.4-21 21v126c0 11.6 9.4 21 21 21s21-9.4 21-21v-126c0-11.6-9.4-21-21-21zM375.7 100.3h-126c-11.6 0-21 9.4-21 21s9.4 21 21 21h126c11.6 0 21-9.4 21-21s-9.4-21-21-21zM249.7 100.3c-11.6 0-21 9.4-21 21v126c0 11.6 9.4 21 21 21s21-9.4 21-21v-126c0-11.6-9.4-21-21-21z"  horiz-adv-x="1024" />

    
    <glyph glyph-name="houtui" unicode="&#59154;" d="M843.08398438 728.26757813c5.71289063 5.71289063 10.63476563 7.734375 14.58984374 5.97656249 3.95507813-1.84570313 5.9765625-6.6796875 5.9765625-14.58984375v-671.30859375c0-7.82226563-2.02148438-12.74414063-5.9765625-14.58984375-3.95507813-1.84570313-8.7890625 0.17578125-14.58984375 5.9765625L519.29492188 363.609375c-2.8125 2.8125-4.65820313 5.625-5.97656251 8.61328125v-323.7890625c0-7.82226563-2.02148438-12.74414063-5.9765625-14.58984375s-8.7890625 0.17578125-14.58984374 5.9765625L169.05078125 363.609375c-5.71289063 5.71289063-8.61328125 12.56835938-8.61328125 20.47851563 0 7.82226563 2.90039063 14.765625 8.61328125 20.47851562l323.7890625 323.61328125c5.71289063 5.71289063 10.63476563 7.734375 14.58984375 5.9765625 3.95507813-1.84570313 5.9765625-6.6796875 5.9765625-14.58984375v-323.7890625c1.23046875 3.07617188 3.1640625 5.9765625 5.9765625 8.61328125l323.70117188 323.87695313z"  horiz-adv-x="1024" />

    
    <glyph glyph-name="guanliyuansousuo_o" unicode="&#60246;" d="M706.18074112 131.56503666000003L599.38133333 238.36444444999995H278.98311111L172.18370333 131.56503666000003V44.18370332999996h533.99703779v87.38133333z m48.54518443 19.41807445V-4.361481099999992H123.6385189v155.34459221L259.56503666 286.90963001h354.37985223l140.78103666-135.9265189z m189.32622222 126.2174811l67.96326002-67.96325888-33.98163001-33.98163-67.96325888 67.96326001c-48.54518557-29.12711111-111.65392555-24.27259221-150.49007445 14.56355556-48.54518557 48.54518557-48.54518557 126.2174811 0 169.90814777s126.2174811 48.54518557 169.90814776 0c38.83614777-38.83614777 43.69066667-101.94488889 14.56355556-150.49007446zM657.63555555 553.90814777c0-121.36296334-97.09036999-218.45333333-218.45333333-218.45333334S220.72888889 432.54518557 220.72888889 553.90814777 317.81925888 772.3614811 439.18222222 772.3614811 657.63555555 675.27111111 657.63555555 553.90814777z m-48.54518556 0C609.09036999 646.144 531.41807445 723.81629667 439.18222222 723.81629667S269.27407445 646.144 269.27407445 553.90814777 346.94636999 384 439.18222222 384 609.09036999 461.67229667 609.09036999 553.90814777z m179.61718556-262.144c29.12711111-29.12711111 72.81777778-29.12711111 101.9448889 0 29.12711111 29.12711111 29.12711111 72.81777778 0 101.94488889s-72.81777778 29.12711111-101.9448889 0-29.12711111-72.81777778 0-101.94488889z"  horiz-adv-x="1024" />

    
    <glyph glyph-name="jiantou_shangyiye_o" unicode="&#60302;" d="M477.866667 362.666667L768 652.8l-29.866667 29.866667-320-320 320-320 29.866667 29.866666-290.133333 290.133334zM298.666667 682.666667H256v-640h42.666667V682.666667z"  horiz-adv-x="1024" />

    
    <glyph glyph-name="jiantou_xiayiye_o" unicode="&#60303;" d="M546.133333 362.666667L256 652.8l29.866667 29.866667 320-320L285.866667 42.666667l-29.866667 29.866666 290.133333 290.133334zM725.333333 682.666667h42.666667v-640h-42.666667V682.666667z"  horiz-adv-x="1024" />

    
    <glyph glyph-name="shezhi" unicode="&#58965;" d="M552.00000031-96h-80.00000062c-34.00000031 0-60 25.99999969-60 60v73.99999969c-25.99999969 7.99999969-49.99999969 18-73.99999969 30l-52.00000031-51.99999938c-24-24-61.99999969-24-84 0l-55.99999969 55.99999969c-24 24-24 61.99999969 0 84l52.00000031 52.00000031c-12 24-24 48-30 73.99999969H92c-34.00000031 0-60 25.99999969-60 60v79.99999969c0 34.00000031 25.99999969 60 60 60h73.99999969c7.99999969 25.99999969 18 49.99999969 30 74.00000062l-51.99999938 51.99999938c-24 24-24 61.99999969 0 84l55.99999969 56.00000062c24 24 61.99999969 24 84 0l52.00000031-52.00000031c24 12 48 24 73.99999969 30V804c0 34.00000031 25.99999969 60 60 60h79.99999969c34.00000031 0 60-25.99999969 60-60v-73.99999969c25.99999969-7.99999969 49.99999969-18 74.00000062-30l51.99999938 51.99999938c24 24 61.99999969 24 84 0l56.00000062-55.99999969c24-24 24-61.99999969 0-84l-52.00000031-52.00000031c12-24 24-48 30-73.99999969H932c34.00000031 0 60-25.99999969 60-60v-79.99999969c0-34.00000031-25.99999969-60-60-60h-73.99999969c-7.99999969-25.99999969-18-49.99999969-30-74.00000062l51.99999938-51.99999938c24-24 24-61.99999969 0-84l-55.99999969-56.00000062c-24-24-61.99999969-24-84 0l-52.00000031 52.00000031c-24-12-48-24-73.99999969-30V-36c-1.99999969-34.00000031-28.00000031-60-61.99999969-60zM332 120l13.99999969-7.99999969c28.00000031-18 58.00000031-30 92.00000062-38.00000062l15.99999938-3.99999938V-36c0-12 7.99999969-19.99999969 20.00000062-19.99999969h79.99999969c12 0 19.99999969 7.99999969 19.99999969 19.99999969v106.00000031l16.00000031 3.99999938c31.99999969 7.99999969 61.99999969 19.99999969 91.99999969 38.00000062l14.00000062 7.99999969 73.99999969-73.99999969c7.99999969-7.99999969 19.99999969-7.99999969 28.00000031 0l55.99999969 55.99999969c7.99999969 7.99999969 7.99999969 19.99999969 0 28.00000031L776 204l7.99999969 13.99999969c18 28.00000031 30 58.00000031 38.00000062 92.00000062l3.99999938 15.99999938H932c12 0 19.99999969 7.99999969 19.99999969 20.00000062v79.99999969c0 12-7.99999969 19.99999969-19.99999969 19.99999969h-106.00000031l-3.99999938 16.00000031c-7.99999969 31.99999969-19.99999969 61.99999969-38.00000062 91.99999969l-7.99999969 10.00000031 73.99999969 73.99999969c7.99999969 7.99999969 7.99999969 19.99999969 0 28.00000031L794 724.00000031c-7.99999969 7.99999969-19.99999969 7.99999969-28.00000031 0L692 648l-13.99999969 7.99999969c-28.00000031 18-58.00000031 30-92.00000062 38.00000062l-13.99999969 3.99999938V804c0 12-7.99999969 19.99999969-19.99999969 19.99999969h-80.00000062c-12 0-19.99999969-7.99999969-19.99999969-19.99999969v-106.00000031l-16.00000031-3.99999938c-31.99999969-7.99999969-61.99999969-19.99999969-91.99999969-38.00000062l-12-7.99999969L258.00000031 724.00000031c-7.99999969 7.99999969-19.99999969 7.99999969-28.00000031 0L171.99999969 666c-7.99999969-7.99999969-7.99999969-19.99999969 0-28.00000031l74.00000062-73.99999969-8.00000062-13.99999969c-18-28.00000031-30-58.00000031-37.99999969-92.00000062l-1.99999969-13.99999969H92c-12 0-19.99999969-7.99999969-19.99999969-19.99999969v-80.00000062c0-12 7.99999969-19.99999969 19.99999969-19.99999969h106.00000031l3.99999938-16.00000031c7.99999969-31.99999969 19.99999969-61.99999969 38.00000062-91.99999969l7.99999969-13.99999969L171.99999969 130.00000031000002c-7.99999969-7.99999969-7.99999969-19.99999969 0-28.00000031L230 43.99999968999998c7.99999969-7.99999969 19.99999969-7.99999969 28.00000031 0l73.99999969 76.00000031zM519.99999969 198c-100.00000031 0-180 79.99999969-180 180s79.99999969 180 180 180 180-79.99999969 180-180c0-97.99999969-82.00000031-180-180-180z m0 319.99999969c-78 0-139.99999969-61.99999969-139.99999969-139.99999969s61.99999969-139.99999969 139.99999969-139.99999969 139.99999969 61.99999969 140.00000062 139.99999969-64.00000031 139.99999969-140.00000062 139.99999969z"  horiz-adv-x="1024" />

    
    <glyph glyph-name="icon-test" unicode="&#58881;" d="M516.22268 735.538144l418.045361-347.315464-418.045361-348.371134zM89.731959 519.125773h426.490721V262.597938H89.731959z"  horiz-adv-x="1025" />

    
    <glyph glyph-name="jiantou-you-cuxiantiao-fill" unicode="&#59053;" d="M1024 384C1024 667.733333 795.733333 896 512 896S0 667.733333 0 384s228.266667-512 512-512 512 228.266667 512 512z m-509.866667-185.6V341.333333h-170.666666c-23.466667 0-42.666667 19.2-42.666667 42.666667s19.2 42.666667 42.666667 42.666667h170.666666v142.933333c0 10.666667 12.8 14.933333 19.2 8.533333l185.6-185.6c4.266667-4.266667 4.266667-10.666667 0-17.066666L533.333333 189.866667c-6.4-6.4-19.2-2.133333-19.2 8.533333z"  horiz-adv-x="1024" />

    
    <glyph glyph-name="jiantou-zuo-cuxiantiao-fill" unicode="&#59058;" d="M0 384c0-283.733333 228.266667-512 512-512s512 228.266667 512 512S795.733333 896 512 896 0 667.733333 0 384z m509.866667 185.6V426.666667h170.666666c23.466667 0 42.666667-19.2 42.666667-42.666667s-19.2-42.666667-42.666667-42.666667h-170.666666v-142.933333c0-10.666667-12.8-14.933333-19.2-8.533333l-185.6 185.6c-4.266667 4.266667-4.266667 10.666667 0 17.066666l185.6 185.6c6.4 6.4 19.2 2.133333 19.2-8.533333z"  horiz-adv-x="1024" />

    
    <glyph glyph-name="kuaijin" unicode="&#59380;" d="M462.4 29.546666670000036V309.86666667L87.04 29.546666670000036V738.45333333l375.36-280.32V738.45333333l474.66666667-354.45333333-474.66666667-354.45333333z"  horiz-adv-x="1024" />

    
    <glyph glyph-name="tiaochariji" unicode="&#59000;" d="M311.2 462.4V507c0 0.9-0.8 1.7-1.7 1.7h-44.6c-0.9 0-1.7-0.8-1.7-1.7v-44.6c0-0.9 0.8-1.7 1.7-1.7h44.6c1 0.1 1.7 0.8 1.7 1.7zM613.1 508.8H364.6c-0.9 0-1.7-0.8-1.7-1.7v-44.6c0-0.9 0.8-1.7 1.7-1.7h248.5c0.9 0 1.7 0.8 1.7 1.7v44.6c0 0.9-0.8 1.7-1.7 1.7zM263.9 397.9c-0.9 0-1.7-0.8-1.7-1.7v-44.6c0-0.9 0.8-1.7 1.7-1.7h44.6c0.9 0 1.7 0.8 1.7 1.7v44.6c0 0.9-0.8 1.7-1.7 1.7h-44.6zM612.4 397.9H363.9c-0.9 0-1.7-0.8-1.7-1.7v-44.6c0-0.9 0.8-1.7 1.7-1.7h248.5c0.9 0 1.7 0.8 1.7 1.7v44.6c0 1-0.7 1.7-1.7 1.7zM838.1 284.6c-0.7 0.7-1.7 0.7-2.4 0L655 103.9c-0.7-0.7-0.7-1.7 0-2.4l31.6-31.6c0.7-0.7 1.7-0.7 2.4 0l180.8 180.8c0.7 0.7 0.7 1.7 0 2.4l-31.7 31.5zM905.7 289.1l-31.6 31.6c-0.7 0.7-1.7 0.7-2.4 0l-28-28c-0.7-0.7-0.7-1.7 0-2.4l31.6-31.6c0.7-0.7 1.7-0.7 2.4 0l28 28c0.7 0.7 0.7 1.8 0 2.4zM650.7 95.8c-0.9 0.9-2.4 0.5-2.8-0.6l-15.7-45.8c-0.5-1.3 0.8-2.6 2.1-2.1l45.8 15.7c1.2 0.4 1.5 1.9 0.6 2.8l-30 30zM165.8 715H250v-65c0-1.1 0.9-2 2-2h429c1.1 0 2 0.9 2 2v65h83.8v-415h48V761c0 1.1-0.9 2-2 2H683V816c0 1.1-0.9 2-2 2H252c-1.1 0-2-0.9-2-2v-53H119.8c-1.1 0-2-0.9-2-2v-809c0-1.1 0.9-2 2-2h494v48h-448V715zM298 768c0 1.1 0.9 2 2 2h333c1.1 0 2-0.9 2-2v-70c0-1.1-0.9-2-2-2H300c-1.1 0-2 0.9-2 2v70z"  horiz-adv-x="1024" />

    
    <glyph glyph-name="xinxi" unicode="&#58893;" d="M794.87680713-66H211.11628643c-82.11553154 0-148.82364229 66.79418555-148.82364141 148.82364229V666.58416211c0 82.11553154 66.79418555 148.82364229 148.82364141 148.82364229h583.67444502c82.02945674 0 148.82364229-66.79418555 148.82364228-148.82364229v-583.67444502c0.0860748-82.11553154-66.70810987-148.90971709-148.7375666-148.90971709zM211.11628643 787.08913565c-66.44988545 0-120.50497354-54.05508808-120.50497354-120.50497354v-583.67444502c0-66.44988545 54.05508808-120.50497354 120.50497354-120.50497354h583.67444502c66.44988545 0 120.50497354 54.05508808 120.50497353 120.50497354V666.58416211c0 66.44988545-54.05508808 120.50497354-120.50497353 120.50497354H211.11628643zM682.37680713 164.42272412H323.61628643c-45.96403974 0-83.32058145 37.3565417-83.32058145 83.32058145V501.75057363c0 45.96403974 37.3565417 83.32058145 83.32058145 83.32058145h358.67444501c45.96403974 0 83.32058145-37.3565417 83.32058145-83.32058145v-254.09334375c0-45.87796494-37.3565417-83.23450664-83.23450576-83.23450576zM323.61628643 556.75248633c-30.29839365 0-54.91583789-24.61744424-54.91583789-54.91583789v-254.09334287c0-30.29839365 24.61744424-54.91583789 54.91583789-54.91583789h358.67444501c30.29839365 0 54.91583789 24.61744424 54.91583789 54.91583789V501.75057363c0 30.29839365-24.61744424 54.91583789-54.91583789 54.9158379H323.61628643zM266.32047588 540.9938792l18.02496181 21.84238741 204.08205762-168.41430792-18.02410049-21.84238741zM535.18858965 372.63810292999995l-17.55929619 22.29341924 206.9242541 163.54246377 17.55929619-22.29342012zM502.04972217 336.57268594000004c-21.86304521 0-39.68056583 17.8175206-39.6805667 39.68056581 0 21.86304521 17.8175206 39.68056583 39.6805667 39.68056583s39.68056583-17.8175206 39.68056582-39.68056583c0-21.86304521-17.8175206-39.68056583-39.68056582-39.68056581z m0 50.95638808c-6.28347393 0-11.36189707-5.07842402-11.36189795-11.36189707s5.16449883-11.27582227 11.36189795-11.27582314 11.36189707 5.07842402 11.36189707 11.36189794-5.07842402 11.27582227-11.36189707 11.27582227zM487.93342519 799.57000781h28.31866875v-397.83856201h-28.31866875z"  horiz-adv-x="1024" />

    
    <glyph glyph-name="yuanxingdacha" unicode="&#59155;" d="M512-56.32c243.17952 0 440.32 197.14048 440.32 440.32s-197.14048 440.32-440.32 440.32-440.32-197.14048-440.32-440.32 197.14048-440.32 440.32-440.32z m0-46.08c-268.63104 0-486.4 217.76896-486.4 486.4S243.36896 870.4 512 870.4s486.4-217.76896 486.4-486.4-217.76896-486.4-486.4-486.4z m35.14368 486.4l184.63744-184.63744a23.04 23.04 0 0 0-32.58368-32.58368L514.56 351.41632l-184.63744-184.63744a23.04 23.04 0 0 0-32.58368 32.58368L481.97632 384 297.33888 568.63744a23.04 23.04 0 0 0 32.58368 32.58368L514.56 416.58368l184.63744 184.63744a23.04 23.04 0 1 0 32.58368-32.58368L547.14368 384z"  horiz-adv-x="1024" />

    
    <glyph glyph-name="xiazai" unicode="&#60178;" d="M800 128H224a32 32 0 0 0-32 32V512a32 32 0 0 0 32 32h64a32 32 0 1 0 0-64H256v-288h512v288h-32a32 32 0 0 0 0 64h64a32 32 0 0 0 32-32v-352a32 32 0 0 0-32-32z m-320 236.8V608a32 32 0 1 0 64 0v-242.56l40.96 40.96a32 32 0 0 0 45.12-45.12L537.6 268.8a31.936 31.936 0 0 0-25.6-12.8 32 32 0 0 0-22.72 9.28l-96 96a32 32 0 0 0 45.12 45.12l41.6-41.6z"  horiz-adv-x="1024" />

    
    <glyph glyph-name="fengxianyuan" unicode="&#59036;" d="M945.7 53L612 693.6c-45 77.9-157.5 77.9-202.5 0L75.9 53c-30.8-53.3 7.7-120 69.3-120h731.3c61.5 0 100 66.7 69.2 120z m-433.8 4c-31.4-0.6-56.9 24.6-56.3 55.5 0.5 29.1 24.7 52.9 54.2 53.5 31.4 0.6 56.9-24.6 56.3-55.5-0.5-29.2-24.7-53-54.2-53.5z m27.4 149.5h-57.1c-9.8 0-18.1 7.1-19.7 16.7l-36.2 188.3c-2.7 16.4 4.7 33.1 19.2 41.3 5.8 3.3 12.6 5.2 19.7 5.2h91c7.2 0 13.9-1.9 19.7-5.2 14.4-8.2 21.9-24.9 19.2-41.3l-36.2-188.3c-1.4-9.6-9.8-16.7-19.6-16.7z"  horiz-adv-x="1024" />

    


  </font>
</defs>
</svg>
